PathFileType	4	(X/Y/Z)	C:/Users/opensim2020/Desktop/walking_exp_matlab/subject03_walking17_run.trc																																																																																																																																																				
DataRate	CameraRate	NumFrames	NumMarkers	Units	OrigDataRate	OrigDataStartFrame	OrigNumFrames																																																																																																																																																
100	100	4	50	mm	100	270	132																																																																																																																																																
Frame#	Time	RTOE			LTHI			RWRB			LTIB			RELB			RUPA			RKNE			RTHI			RASI			RFRM			RWRA			RSHO			STRN			LFRM			CLAV			LWRB			LASI			RFHD			LFIN			LSHO			RTIB			LWRA			RBHD			LHEE			RANK			RHEE			C7			RFIN			LBHD			LUPA			LTOE			RBAK			LELB			LFHD			RPSI			LPSI			T10			LKNE			LANK			*39			*40			*41			*42			*43			*44			*45			*46			*47			*48			*49		
		X1	Y1	Z1	X2	Y2	Z2	X3	Y3	Z3	X4	Y4	Z4	X5	Y5	Z5	X6	Y6	Z6	X7	Y7	Z7	X8	Y8	Z8	X9	Y9	Z9	X10	Y10	Z10	X11	Y11	Z11	X12	Y12	Z12	X13	Y13	Z13	X14	Y14	Z14	X15	Y15	Z15	X16	Y16	Z16	X17	Y17	Z17	X18	Y18	Z18	X19	Y19	Z19	X20	Y20	Z20	X21	Y21	Z21	X22	Y22	Z22	X23	Y23	Z23	X24	Y24	Z24	X25	Y25	Z25	X26	Y26	Z26	X27	Y27	Z27	X28	Y28	Z28	X29	Y29	Z29	X30	Y30	Z30	X31	Y31	Z31	X32	Y32	Z32	X33	Y33	Z33	X34	Y34	Z34	X35	Y35	Z35	X36	Y36	Z36	X37	Y37	Z37	X38	Y38	Z38	X39	Y39	Z39	X40	Y40	Z40	X41	Y41	Z41	X42	Y42	Z42	X43	Y43	Z43	X44	Y44	Z44	X45	Y45	Z45	X46	Y46	Z46	X47	Y47	Z47	X48	Y48	Z48	X49	Y49	Z49	X50	Y50	Z50
																																																																																																																																																							
67	0.66	128.09976	31.98614	302.3602	412.30209	632.57581	111.17426	540.45117	1001.47302	425.25504	375.2067	342.73346	146.80406	367.14841	1077.97595	539.32831	348.99927	1167.31042	521.43604	274.55838	451.3591	382.96899	282.12256	631.55994	424.33206	379.44373	916.71991	385.39542	465.01654	1035.37769	477.1026	528.21582	1047.25952	399.64719	375.90634	1365.40723	410.54416	453.96585	1154.61877	249.39159	303.509	1046.05615	12.90939	422.53662	1325.30579	252.62665	378.90735	968.04407	31.87099	384.27786	910.94556	149.00534	385.70297	1623.42236	324.27493	421.47278	899.18463	67.30989	353.01929	1373.91296	104.82324	157.00604	294.97766	383.70618	382.70694	985.06683	87.07577	286.41443	1538.96924	313.40787	167.43396	198.50981	213.52338	23.51036	128.50996	336.09641	-32.81088	127.01187	291.22491	295.67621	1402.09033	253.79202	602.35431	1020.42828	391.73737	299.07016	1535.01868	183.53865	253.52527	1221.35046	8.94134	308.32224	79.6904	212.80829	246.31413	1237.07483	357.26581	217.34381	1118.74951	-15.37109	403.15332	1620.06555	191.63776	226.42892	972.7821	340.39963	224.76924	954.74133	191.02609	242.11316	1099.43958	260.03427	508.18314	484.08212	148.98537	225.14639	197.28377	180.04333	NaN	NaN	NaN	NaN	NaN	NaN	298.08783	1646.98767	231.86551	NaN	NaN	NaN	NaN	NaN	NaN	NaN	NaN	NaN	NaN	NaN	NaN	NaN	NaN	NaN	NaN	NaN	NaN	NaN	NaN	NaN	NaN	NaN	NaN
68	0.67	129.78847	32.05078	302.6893	451.06796	642.69122	113.2849	582.4173	1020.48242	417.08286	428.93546	341.14969	150.19856	408.84369	1086.03601	536.5177	390.32968	1174.0365	519.19385	290.71875	459.0513	384.65915	308.15955	638.37469	425.25159	415.22388	921.81903	386.41449	506.65268	1049.83923	471.3183	567.98181	1066.44568	393.35321	412.40942	1373.19043	409.37784	488.57996	1161.97009	247.86812	323.24405	1060.24353	10.64534	455.95224	1332.6665	251.16714	397.94611	980.84033	27.54073	420.3074	919.32526	151.08669	419.77533	1629.90698	324.28351	443.11432	913.46191	61.55774	382.74207	1381.91174	105.90535	168.75282	305.63638	385.78787	403.85657	998.42761	82.64901	320.16632	1546.01733	313.50137	237.41733	176.47638	219.07248	34.49804	139.79512	337.73318	-20.16641	141.67369	292.04642	329.12451	1408.42761	255.14928	643.1521	1042.44177	382.72266	332.19019	1542.5238	183.61102	279.30164	1234.12903	9.40461	389.24805	71.47757	217.43622	282.94583	1243.73438	360.76627	238.70747	1133.98328	-16.14601	436.70151	1627.11218	191.31435	263.01981	979.24023	342.36819	260.60934	962.6748	192.87381	277.38257	1105.50012	263.15482	548.72113	496.55939	152.12943	294.82523	180.70607	185.08905	NaN	NaN	NaN	NaN	NaN	NaN	331.6449	1654.37427	232.65007	NaN	NaN	NaN	NaN	NaN	NaN	NaN	NaN	NaN	NaN	NaN	NaN	NaN	NaN	NaN	NaN	NaN	NaN	NaN	NaN	NaN	NaN	NaN	NaN
69	0.68	131.39441	31.79349	302.78378	489.61322	652.96436	114.92008	623.45184	1038.99609	409.73053	481.49786	339.64435	153.8103	449.76328	1094.27356	533.60999	430.99323	1181.09985	516.92279	308.05908	467.39169	386.47665	334.96851	645.28772	426.14236	451.46796	927.10437	387.26419	547.3399	1064.08435	465.88095	606.42206	1084.6759	387.3049	448.36746	1380.9967	408.21353	523.19897	1169.11853	246.39195	344.39197	1074.50806	9.02057	489.33032	1339.8667	249.86392	417.95438	993.69745	24.03484	456.93399	927.94238	152.88615	453.5787	1636.10315	323.85593	465.45721	927.27728	56.32852	413.23569	1389.67053	107.04254	182.00276	316.84854	388.27792	425.84079	1011.3031	79.06969	353.82056	1552.91931	313.51495	309.9581	155.50415	225.42874	47.74286	150.7153	339.80203	-4.5112	156.07755	292.72629	362.40295	1414.36218	256.28284	682.14526	1063.37939	373.86017	365.28482	1549.80054	183.59996	306.19061	1246.61243	10.31649	470.43738	64.15041	222.24904	319.56049	1250.29492	363.73541	261.14343	1149.13123	-16.11365	470.16891	1633.82483	191.18306	299.99481	985.63727	344.01346	296.97974	970.67059	194.68759	312.52771	1111.38794	266.49622	587.38049	507.64969	154.94658	365.95801	164.92688	190.37334	NaN	NaN	NaN	NaN	NaN	NaN	366.0632	1661.34412	232.96851	NaN	NaN	NaN	NaN	NaN	NaN	NaN	NaN	NaN	NaN	NaN	NaN	NaN	NaN	NaN	NaN	NaN	NaN	NaN	NaN	NaN	NaN	NaN	NaN
70	0.69	133.28699	31.49809	302.80939	528.0509	663.24054	116.37653	662.04742	1055.94495	402.10019	532.41022	337.96088	157.08325	489.85132	1102.44885	530.93121	470.65253	1188.27283	514.84222	326.51349	476.0029	388.11465	362.17212	652.09698	426.91989	488.15469	932.38599	387.9256	586.83972	1077.50793	460.84039	643.79114	1101.776	381.68231	483.72537	1388.37537	406.98993	558.07233	1176.15466	245.23021	366.69238	1088.42358	8.02357	522.66083	1346.63794	248.75351	438.80872	1006.18726	21.10436	493.61203	936.52679	154.75212	487.60779	1641.87756	323.6879	488.92276	940.81494	51.01593	444.33652	1396.95557	108.23624	196.66884	328.21396	390.77295	449.49738	1024.09363	74.8547	387.46445	1559.38293	313.47537	384.32986	136.42152	231.74828	63.63544	160.39645	342.1109	14.39731	170.00102	293.75064	395.82437	1419.89368	257.3129	719.71716	1082.99121	365.71698	398.59293	1556.70178	183.52374	333.78589	1258.83533	11.29634	551.61346	57.70313	227.2093	355.84894	1256.75195	366.13837	284.65259	1164.03406	-15.50737	503.51755	1639.8147	191.29459	337.3038	991.72925	345.64194	333.80869	978.36041	196.50896	347.8486	1117.04626	269.85712	624.11456	517.01355	157.74113	438.3573	150.45663	195.5733	NaN	NaN	NaN	NaN	NaN	NaN	400.14551	1667.92371	233.27063	NaN	NaN	NaN	NaN	NaN	NaN	NaN	NaN	NaN	NaN	NaN	NaN	NaN	NaN	NaN	NaN	NaN	NaN	NaN	NaN	NaN	NaN	NaN	NaN
